<?xml version="1.0" standalone="no"?>
<!DOCTYPE svg PUBLIC "-//W3C//DTD SVG 20010904//EN"
 "http://www.w3.org/TR/2001/REC-SVG-20010904/DTD/svg10.dtd">
<svg version="1.0" xmlns="http://www.w3.org/2000/svg"
 width="25.000000pt" height="27.000000pt" viewBox="0 0 25.000000 27.000000"
 preserveAspectRatio="xMidYMid meet">
<metadata>
Created by potrace 1.15, written by Peter Selinger 2001-2017
</metadata>
<g transform="translate(0.000000,27.000000) scale(0.100000,-0.100000)"
fill="#ff3399" stroke="none">
<path d="M1 223 c-2 -37 1 -44 13 -40 8 3 20 -1 27 -9 11 -14 10 -48 -7 -137
l-7 -38 57 3 c32 2 62 9 68 15 6 7 20 10 32 7 12 -3 32 -1 46 4 20 7 15 9 -25
8 -32 0 -54 -6 -62 -16 -7 -8 -13 -10 -13 -4 0 19 28 36 49 29 10 -3 31 -3 46
1 25 6 26 8 24 85 -3 73 -5 81 -33 108 -30 27 -35 29 -122 29 l-90 0 -3 -45z"/>
</g>
</svg>
